{"accessors":[{"bufferView":0,"componentType":5126,"count":426,"max":[1.44482421875,0.0860595703125,1.44482421875],"min":[-1.44482421875,-2.2400660514831543,-1.44482421875],"normalized":false,"type":"VEC3"},{"bufferView":1,"componentType":5126,"count":426,"max":[1.0,6.447636405937374e-05,1.0,1.0],"min":[-1.0,-1.0,-1.0,-1.0],"normalized":false,"type":"VEC4"},{"bufferView":2,"componentType":5126,"count":426,"max":[1.0,1.0,1.0],"min":[-1.0,-1.0,-1.0],"normalized":false,"type":"VEC3"},{"bufferView":3,"componentType":5126,"count":426,"max":[1.0,1.0],"min":[0.0,0.0],"normalized":false,"type":"VEC2"},{"bufferView":4,"componentType":5123,"count":426,"max":[425],"min":[0],"normalized":false,"type":"SCALAR"}],"asset":{"generator":"Godot Engine v4.6.2.stable.arch_linux@001aa128b1cd80dc4e47e823c360bccf45ed6bad","version":"2.0"},"bufferViews":[{"buffer":0,"byteLength":5112,"byteStride":12,"target":34962},{"buffer":0,"byteLength":6816,"byteOffset":5112,"byteStride":16,"target":34962},{"buffer":0,"byteLength":5112,"byteOffset":11928,"byteStride":12,"target":34962},{"buffer":0,"byteLength":3408,"byteOffset":17040,"byteStride":8,"target":34962},{"buffer":0,"byteLength":852,"byteOffset":20448,"target":34963}],"buffers":[{"byteLength":21300,"uri":"Table0.bin"}],"extensionsUsed":["GODOT_single_root"],"materials":[{}],"meshes":[{"name":"CSGCylinder3D2","primitives":[{"attributes":{"NORMAL":2,"POSITION":0,"TANGENT":1,"TEXCOORD_0":3},"indices":4,"material":0,"mode":4}]}],"nodes":[{"children":[1,2,3,4,5],"mesh":0,"name":"CSGCylinder3D2"},{"name":"CSGBox3D3","rotation":[-0.10661596059799194,0.6990229487419128,0.10661596059799194,0.6990228891372681],"translation":[0.5645197629928589,-1.313894271850586,-2.4675943066654327e-08]},{"name":"CSGBox3D4","rotation":[-6.5907035384782375e-09,0.9885677099227905,0.15077772736549377,4.321166713339153e-08],"translation":[4.9351886133308653e-08,-1.313894271850586,-0.5645197629928589]},{"name":"CSGBox3D5","rotation":[-0.10661596059799194,-0.6990228891372681,-0.10661593824625015,0.6990229487419128],"translation":[-0.5645197033882141,-1.313894271850586,7.402782387089246e-08]},{"name":"CSGBox3D2","rotation":[-0.15077772736549377,0.0,0.0,0.9885677099227905],"translation":[0.0,-1.313894271850586,0.5645197629928589]},{"name":"CSGBox3D","translation":[0.0,-0.2226189374923706,0.0]}],"scene":0,"scenes":[{"nodes":[0]}]}